<?xml version="1.0" encoding="utf-8"?>
<!-- Svg Vector Icons : http://www.onlinewebfonts.com/icon -->
<!DOCTYPE svg PUBLIC "-//W3C//DTD SVG 1.1//EN" "http://www.w3.org/Graphics/SVG/1.1/DTD/svg11.dtd">
<svg version="1.1" xmlns="http://www.w3.org/2000/svg" xmlns:xlink="http://www.w3.org/1999/xlink" x="0px" y="0px" viewBox="0 0 1000 1000" enable-background="new 0 0 1000 1000" xml:space="preserve">
<metadata> Svg Vector Icons : http://www.onlinewebfonts.com/icon </metadata>
<g><g transform="translate(0.000000,369.000000) scale(0.100000,-0.100000)"><path d="M3041.4,2204.1c-161-49.8-291.3-180.1-325.8-329.6c-49.8-208.9,59.4-423.5,258.7-507.8c51.7-21.1,153.3-34.5,302.8-42.1l224.2-9.6v-178.2V956.7H3233c-291.3,0-339.2-11.5-446.5-113c-74.7-69-107.3-136.1-164.8-346.8l-51.7-182l-381.3-9.6c-371.7-9.6-387.1-11.5-492.5-63.2c-128.4-63.2-231.9-172.5-300.8-318.1c-49.8-105.4-49.8-115-55.6-582.5l-7.7-473.3h-197.4H935.5l-5.8,839.3c-5.7,764.6-9.6,843.1-40.2,891c-59.4,92-143.7,72.8-392.8-84.3C278.2,378,226.5,326.2,146,171c-44.1-84.3-46-97.7-46-594v-507.8l61.3-124.6c34.5-69,99.6-161,147.5-207c164.8-159.1,224.2-371.8,189.7-668.8c-13.4-116.9-36.4-203.1-74.7-283.6l-55.6-115v-641.9c0-636.2,0-641.9,46-733.9c57.5-118.8,120.7-191.6,224.2-264.4c103.5-70.9,185.9-76.7,243.4-19.2c42.2,40.3,42.2,46,47.9,931.3l5.8,891h197.4h199.3l7.7-475.2c5.7-465.6,5.7-475.2,55.6-580.6c65.2-139.9,184-256.8,320-320c95.8-44.1,143.7-49.8,415.8-63.2c339.2-15.3,433.1-36.4,666.8-151.4c218.5-109.2,350.7-222.3,546.1-463.7c197.4-245.3,327.7-354.5,553.8-467.5c310.4-157.1,245.3-151.4,1931.5-151.4h1494.6l107.3,49.8c145.6,69,254.9,172.5,318.1,300.8c51.8,107.3,53.7,116.9,63.2,536.5l9.6,429.2l63.2,55.6c86.2,76.7,189.7,76.7,275.9,0l63.2-55.6l9.6-323.8c11.5-364.1,24.9-412,147.6-488.6c67.1-40.2,92-44.1,360.2-44.1c287.4,0,289.4,0,417.7,63.2c70.9,36.4,151.4,92,180.1,128.4c28.8,34.5,132.2,208.9,231.9,387.1c343,611.3,333.4,553.8,325.8,1837.7l-5.8,994.5l-51.7,153.3C9773-620.4,9412.8,35,9317,132.7c-40.2,40.2-122.6,95.8-185.9,124.6c-109.2,47.9-122.6,49.8-408.1,44.1c-325.8-5.8-354.5-15.3-444.6-149.5c-40.2-59.4-44.1-84.3-44.1-348.8c0-327.7-19.2-394.7-124.6-444.6c-78.6-38.3-93.9-38.3-174.4,0c-93.9,44.1-111.2,86.2-124.6,304.7c-7.7,153.3-21.1,210.8-59.4,287.4c-65.1,124.6-166.7,228-289.3,291.3c-90.1,47.9-122.6,53.7-352.6,59.4l-254.8,7.7l-38.3,136c-80.5,277.9-97.7,312.4-168.6,381.3c-124.6,118.8-162.9,130.3-463.7,130.3h-268.3v180.1V1315l235.7,9.6c256.8,11.5,337.3,38.3,442.7,141.8c78.6,78.6,111.1,153.3,120.7,277.9c19.2,205-109.2,389-312.3,450.3c-74.7,23-364.1,26.8-1701.6,24.9C3813.6,2219.5,3068.2,2211.8,3041.4,2204.1z M5101.3-37.8c318.1-84.3,578.7-243.4,816.3-496.3c632.4-672.6,599.8-1720.8-74.7-2364.6c-939-896.8-2493-450.3-2814.9,806.7c-55.6,222.3-63.2,546.1-17.2,764.6c143.7,666.9,678.3,1190,1349,1316.5C4560.9,27.3,4902,13.9,5101.3-37.8z"/><path d="M4896.3-1394.5l-532.7-532.7l-220.4,220.4l-220.4,220.4l-206.9-207l-205-205l427.3-425.4l425.4-427.3l741.6,741.6l743.5,743.5l-201.2,201.2c-111.1,111.1-205,201.2-210.8,201.2S5187.6-1103.3,4896.3-1394.5z"/></g></g>
</svg>