<svg width="16" height="16" viewBox="0 0 16 16" fill="none" xmlns="http://www.w3.org/2000/svg">
<path d="M1.20874 9.0002H12.3787L7.49874 13.8802C7.10874 14.2702 7.10874 14.9102 7.49874 15.3002C7.88874 15.6902 8.51874 15.6902 8.90874 15.3002L15.4987 8.7102C15.8887 8.3202 15.8887 7.6902 15.4987 7.3002L8.91874 0.7002C8.73191 0.512948 8.47826 0.407715 8.21374 0.407715C7.94922 0.407715 7.69557 0.512948 7.50874 0.7002C7.11874 1.0902 7.11874 1.7202 7.50874 2.1102L12.3787 7.0002H1.20874C0.65874 7.0002 0.20874 7.4502 0.20874 8.0002C0.20874 8.5502 0.65874 9.0002 1.20874 9.0002Z" fill="#6D7D8B"/>
</svg>
