<svg width="109" height="145" viewBox="0 0 109 145" fill="none" xmlns="http://www.w3.org/2000/svg">
<path d="M20.5004 9.04163C22.0875 6.2914 24.3711 4.00774 27.1213 2.4205C29.8714 0.833251 32.9912 -0.00158698 36.1665 2.26479e-06H76.8538C94.3343 2.26479e-06 108.499 14.1652 108.499 31.6457V108.499C108.499 115.19 104.865 121.037 99.4579 124.166V31.6457C99.4579 25.6507 97.0764 19.9013 92.8373 15.6622C88.5982 11.4231 82.8488 9.04163 76.8538 9.04163H20.5004ZM0 36.1665C0 31.3705 1.90519 26.771 5.29646 23.3797C8.68773 19.9884 13.2873 18.0833 18.0833 18.0833H72.333C77.129 18.0833 81.7285 19.9884 85.1198 23.3797C88.5111 26.771 90.4163 31.3705 90.4163 36.1665V140.145C90.4162 140.963 90.1941 141.766 89.7736 142.468C89.3531 143.17 88.75 143.745 88.0285 144.131C87.3071 144.517 86.4945 144.7 85.6772 144.66C84.8599 144.621 84.0687 144.36 83.3879 143.907L45.2081 118.451L7.02836 143.907C6.34754 144.36 5.55631 144.621 4.73904 144.66C3.92177 144.7 3.10911 144.517 2.3877 144.131C1.66628 143.745 1.06318 143.17 0.642678 142.468C0.22218 141.766 5.94394e-05 140.963 0 140.145V36.1665Z" fill="#1F4590"/>
</svg>
