<svg width="30" height="30" viewBox="0 0 30 30" fill="none" xmlns="http://www.w3.org/2000/svg">
<path fill-rule="evenodd" clip-rule="evenodd" d="M2.49994 15C2.49994 8.1 8.09994 2.5 14.9999 2.5C21.8999 2.5 27.5 8.1 27.5 15C27.5 21.9 21.8999 27.5 14.9999 27.5C8.09994 27.5 2.49994 21.9 2.49994 15ZM7.12493 15.875L11.6124 20.3625C12.0999 20.85 12.8999 20.85 13.3749 20.3625L22.8624 10.875C23.3499 10.3875 23.3499 9.60004 22.8624 9.11254C22.3749 8.62504 21.5874 8.62504 21.0999 9.11254L12.4999 17.7125L8.88742 14.1125C8.39993 13.625 7.61243 13.625 7.12493 14.1125C6.89086 14.3461 6.75932 14.6631 6.75932 14.9938C6.75932 15.3244 6.89086 15.6415 7.12493 15.875Z" fill="#00C04D"/>
</svg>
