<?xml version="1.0" encoding="iso-8859-1"?>
<!-- Generator: Adobe Illustrator 19.0.0, SVG Export Plug-In . SVG Version: 6.00 Build 0)  -->
<svg version="1.1" id="Layer_1" xmlns="http://www.w3.org/2000/svg" xmlns:xlink="http://www.w3.org/1999/xlink" x="0px" y="0px"
	 viewBox="0 0 493.623 493.623" style="enable-background:new 0 0 493.623 493.623;" xml:space="preserve">
<path style="fill:#ACC1C1;" d="M246.812,88.615c-24.434,0-44.308-19.873-44.308-44.308S222.377,0,246.812,0
	s44.308,19.873,44.308,44.308S271.246,88.615,246.812,88.615z M246.812,15.754c-15.746,0-28.554,12.808-28.554,28.554
	s12.808,28.554,28.554,28.554c15.738,0,28.554-12.808,28.554-28.554S262.55,15.754,246.812,15.754z"/>
<path style="fill:#8DA09F;" d="M246.812,14.438c-21.969,0-40.204,16.085-43.662,37.085c3.458,21,21.693,37.085,43.662,37.085
	s40.204-16.085,43.662-37.085C287.015,30.523,268.78,14.438,246.812,14.438z M275.365,58.746c0,15.746-12.816,28.554-28.554,28.554
	c-15.746,0-28.554-12.808-28.554-28.554c0-2.505,0.433-4.899,1.032-7.223c-0.599-2.324-1.032-4.718-1.032-7.223
	c0-15.746,12.808-28.554,28.554-28.554c15.738,0,28.554,12.808,28.554,28.554c0,2.505-0.433,4.899-1.04,7.223
	C274.932,53.847,275.365,56.241,275.365,58.746z"/>
<path style="fill:#3BABFF;" d="M411.628,472.277c0,11.792-9.555,21.346-21.339,21.346H103.333c-11.8,0-21.339-9.555-21.339-21.346
	V73.862c0-11.792,9.539-21.346,21.339-21.346H390.29c11.784,0,21.339,9.555,21.339,21.346V472.277z"/>
<path style="fill:#075CD8;" d="M81.995,73.854c0-11.792,9.539-21.346,21.339-21.346H390.29c11.784,0,21.339,9.555,21.339,21.346
	v398.415c0,11.792-9.555,21.346-21.339,21.346"/>
<path style="fill:#0EE0B8;" d="M361.287,99.123H132.352c-9.72,0-17.613,7.885-17.613,17.613v234.598L227.875,460.13h133.419
	c9.72,0,17.597-7.885,17.597-17.605V116.744C378.892,107.008,371.015,99.123,361.287,99.123z"/>
<path style="fill:#075CD8;" d="M361.287,127.677H132.352c-9.72,0-17.613,7.885-17.613,17.613v234.59l113.136,108.796h133.419
	c9.72,0,17.597-7.885,17.597-17.605V145.298C378.892,135.562,371.015,127.677,361.287,127.677z"/>
<path style="fill:#FFD400;" d="M361.287,99.123H132.352c-9.72,0-17.613,7.885-17.613,17.613v234.598L227.875,460.13h133.419
	c9.72,0,17.597-7.885,17.597-17.605V116.744C378.892,107.008,371.015,99.123,361.287,99.123z"/>
<path style="fill:#FFC200;" d="M378.892,380.471V116.744c0-9.728-7.877-17.613-17.597-17.613H132.352
	c-9.72,0-17.613,7.885-17.613,17.613"/>
<path style="fill:#FFB000;" d="M378.892,380.471V116.744c0-9.728-7.877-17.613-17.597-17.613H216.966"/>
<path style="fill:#FFC200;" d="M213.595,355.304v87.82c0,1.26,0.165,2.481,0.417,3.679l13.54,13.021
	c1,0.173,2.001,0.299,3.048,0.299h92.121L213.721,355.304H213.595z"/>
<path style="fill:#FFB000;" d="M213.595,355.304v87.82c0,1.26,0.165,2.481,0.417,3.679l13.54,13.021
	c1,0.173,2.001,0.299,3.048,0.299h47.002l-52.61-87.899L213.595,355.304z"/>
<path style="fill:#ACC1C1;" d="M227.875,460.13h0.142V369.16c0-9.72-7.893-17.605-17.613-17.605h-95.453L227.875,460.13z"/>
<polyline style="fill:#93A4A5;" points="114.952,351.547 227.875,460.13 228.009,460.13 228.009,369.16 "/>
<path style="fill:#F9E385;" d="M122.703,351.547l-0.213-0.213V116.744c0-9.728,7.877-17.613,17.613-17.613h-7.751
	c-9.72,0-17.613,7.885-17.613,17.613v234.591l0.213,0.213H122.703z"/>
<g>
	<path style="fill:#FFD400;" d="M337.625,169.756c0,2.473-2.276,4.482-5.081,4.482H161.087c-2.796,0-5.081-2.009-5.081-4.482l0,0
		c0-2.481,2.276-4.482,5.081-4.482h171.465C335.348,165.274,337.625,167.274,337.625,169.756L337.625,169.756z"/>
	<path style="fill:#FFD400;" d="M337.625,204.509c0,2.473-2.276,4.49-5.081,4.49H161.087c-2.796,0-5.081-2.016-5.081-4.49l0,0
		c0-2.465,2.276-4.482,5.081-4.482h171.465C335.348,200.027,337.625,202.043,337.625,204.509L337.625,204.509z"/>
	<path style="fill:#FFD400;" d="M337.625,239.269c0,2.473-2.276,4.482-5.081,4.482H161.087c-2.796,0-5.081-2.009-5.081-4.482l0,0
		c0-2.473,2.276-4.482,5.081-4.482h171.465C335.348,234.787,337.625,236.796,337.625,239.269L337.625,239.269z"/>
	<path style="fill:#FFD400;" d="M337.625,274.03c0,2.473-2.276,4.49-5.081,4.49H161.087c-2.796,0-5.081-2.017-5.081-4.49l0,0
		c0-2.473,2.276-4.49,5.081-4.49h171.465C335.348,269.533,337.625,271.549,337.625,274.03L337.625,274.03z"/>
	<path style="fill:#FFD400;" d="M337.625,308.783c0,2.481-2.276,4.49-5.081,4.49H161.087c-2.796,0-5.081-2.009-5.081-4.49l0,0
		c0-2.465,2.276-4.474,5.081-4.474h171.465C335.348,304.301,337.625,306.31,337.625,308.783L337.625,308.783z"/>
</g>
<path style="fill:#ACC1C1;" d="M343.383,107.04c0,5.411-4.387,9.791-9.783,9.791H160.024c-5.404,0-9.783-4.387-9.783-9.791V55.895
	c0-5.411,4.387-9.791,9.783-9.791h173.568c5.404,0,9.783,4.387,9.783,9.791v51.145H343.383z"/>
<path style="fill:#C5D8D7;" d="M333.6,46.104H160.024c-5.404,0-9.783,4.387-9.783,9.791v24.891c0,5.411,4.387,9.791,9.783,9.791
	h173.568c5.404,0,9.783-4.387,9.783-9.791V55.895C343.383,50.491,338.995,46.104,333.6,46.104z"/>
<path style="fill:#D1E5E3;" d="M160.024,46.104c-3.308,0-6.089,1.757-7.861,4.269c1.772,2.513,4.553,4.269,7.861,4.269h173.568
	c3.308,0,6.089-1.757,7.861-4.269c-1.772-2.513-4.553-4.269-7.861-4.269C333.592,46.104,160.024,46.104,160.024,46.104z"/>
<g>
	<circle style="fill:#ACC1C1;" cx="201.031" cy="72.862" r="4.427"/>
	<circle style="fill:#ACC1C1;" cx="231.546" cy="72.862" r="4.427"/>
	<circle style="fill:#ACC1C1;" cx="262.077" cy="72.862" r="4.427"/>
	<circle style="fill:#ACC1C1;" cx="292.577" cy="72.862" r="4.427"/>
</g>
<g>
</g>
<g>
</g>
<g>
</g>
<g>
</g>
<g>
</g>
<g>
</g>
<g>
</g>
<g>
</g>
<g>
</g>
<g>
</g>
<g>
</g>
<g>
</g>
<g>
</g>
<g>
</g>
<g>
</g>
</svg>
