<?xml version="1.0" encoding="iso-8859-1"?>
<!-- Generator: Adobe Illustrator 19.0.0, SVG Export Plug-In . SVG Version: 6.00 Build 0)  -->
<svg version="1.1" id="Layer_1" xmlns="http://www.w3.org/2000/svg" xmlns:xlink="http://www.w3.org/1999/xlink" x="0px" y="0px"
	 viewBox="0 0 496.8 496.8" style="enable-background:new 0 0 496.8 496.8;" xml:space="preserve">
<path style="fill:#008CF4;" d="M36,479.8c-19.2,0-36-16-36-35.2v-252c0-19.2,16.8-35.2,36-35.2s36,16,36,35.2v252
	C72,463.8,55.2,479.8,36,479.8z"/>
<path style="fill:#363F3E;" d="M493.6,196.6l-38.4-27.2c-0.8-0.8-2.4-1.6-3.2-1.6H284l47.2-56.8c0.8-0.8,0.8-0.8,0.8-1.6l22.4-68.8
	c0.8-2.4,0-4.8-1.6-6.4l-17.6-16c-2.4-1.6-5.6-1.6-8,0l-220,188c-1.6,0.8-3.2,2.4-3.2,4V435c0,3.2,41.6,20,44.8,20.8l34.4,8
	l184.8,8.8l0,0c0.8,0,1.6,0,2.4-0.8l43.2-20c0.8,0,1.6-0.8,1.6-1.6l25.6-25.6c1.6-1.6,1.6-3.2,1.6-4.8l-2.4-20l24.8-26.4
	c0.8-0.8,1.6-1.6,1.6-3.2l4.8-31.2c0-1.6,0-3.2-0.8-4l-11.2-15.2l16.8-10.4c1.6-0.8,2.4-2.4,2.4-4l4.8-32.8c0-1.6,0-4-1.6-4.8
	l-11.2-11.2l20-19.2c0.8-0.8,1.6-2.4,1.6-3.2l4.8-30.4C496,200.6,495.2,198.2,493.6,196.6z"/>
<path d="M455.2,170.2c-0.8-0.8-2.4-1.6-3.2-1.6H284l47.2-56.8c0.8-0.8,0.8-0.8,0.8-1.6l22.4-69.6c0.8-2.4,0-4.8-1.6-6.4l-17.6-16
	c-2.4-1.6-5.6-1.6-8,0l-176,151.2L424,442.2l16.8-16.8c1.6-1.6,1.6-3.2,1.6-4.8l-2.4-20.8l24.8-26.4c0.8-0.8,1.6-1.6,1.6-3.2
	l4.8-31.2c0-1.6,0-3.2-0.8-4l-11.2-15.2l16.8-10.4c1.6-0.8,2.4-2.4,2.4-4l4.8-32.8c0-1.6,0-4-1.6-4.8l-11.2-11.2l20-19.2
	c0.8-0.8,1.6-2.4,1.6-3.2l4.8-30.4c0-2.4-0.8-4.8-2.4-5.6L455.2,170.2z"/>
<path style="fill:#0372E2;" d="M36,157.4c-19.2,0-36,16-36,35.2v137.6l72,71.2V192.6C72,173.4,55.2,157.4,36,157.4z"/>
<circle style="fill:#FFFFFF;" cx="35.2" cy="196.6" r="8.8"/>
<g>
</g>
<g>
</g>
<g>
</g>
<g>
</g>
<g>
</g>
<g>
</g>
<g>
</g>
<g>
</g>
<g>
</g>
<g>
</g>
<g>
</g>
<g>
</g>
<g>
</g>
<g>
</g>
<g>
</g>
</svg>
