<svg width="113" height="141" viewBox="0 0 113 141" fill="none" xmlns="http://www.w3.org/2000/svg">
<path d="M56.3996 63.4503C62.2399 63.4503 66.9745 58.7157 66.9745 52.8753C66.9745 47.035 62.2399 42.3004 56.3996 42.3004C50.5592 42.3004 45.8246 47.035 45.8246 52.8753C45.8246 58.7157 50.5592 63.4503 56.3996 63.4503Z" fill="#1F4590"/>
<path d="M56.3996 0.000732492C41.5387 -1.05703e-05 27.278 5.86459 16.7171 16.3199C6.15623 26.7752 0.148609 40.9762 0 55.8363C0 94.47 49.7021 137.475 51.8171 139.308C53.0941 140.4 54.7192 141 56.3996 141C58.0799 141 59.7051 140.4 60.982 139.308C63.4495 137.475 112.799 94.47 112.799 55.8363C112.651 40.9762 106.643 26.7752 96.082 16.3199C85.5211 5.86459 71.2605 -1.05703e-05 56.3996 0.000732492ZM56.3996 77.5501C51.5194 77.5501 46.7487 76.103 42.691 73.3917C38.6332 70.6804 35.4706 66.8267 33.603 62.318C31.7354 57.8092 31.2468 52.8479 32.1989 48.0615C33.151 43.2751 35.501 38.8784 38.9518 35.4276C42.4027 31.9768 46.7993 29.6267 51.5858 28.6746C56.3722 27.7226 61.3335 28.2112 65.8422 30.0788C70.3509 31.9464 74.2046 35.109 76.9159 39.1667C79.6272 43.2245 81.0744 47.9951 81.0744 52.8753C81.0744 59.4195 78.4747 65.6956 73.8473 70.3231C69.2199 74.9505 62.9437 77.5501 56.3996 77.5501Z" fill="#1F4590"/>
</svg>
