<svg width="124" height="147" viewBox="0 0 124 147" fill="none" xmlns="http://www.w3.org/2000/svg">
<path d="M120.679 26.2818C110.643 23.5878 100.839 20.0871 91.3614 15.8136C82.0368 11.7449 73.0353 6.96461 64.4357 1.51455L62 0L59.6086 1.55909C51.009 7.00915 42.0075 11.7895 32.6829 15.8582C23.1893 20.1187 13.3705 23.6045 3.32143 26.2818L0 27.1282V64.2791C0 123.925 59.9186 146.243 60.4943 146.465L62 147L63.5057 146.465C64.1257 146.465 124 123.97 124 64.2791V27.1282L120.679 26.2818ZM100.44 55.9045L50.9729 104.236L22.9843 76.0391C21.8098 74.8577 21.1499 73.2553 21.1499 71.5845C21.1499 69.9138 21.8098 68.3114 22.9843 67.13C24.1588 65.9486 25.7518 65.2849 27.4129 65.2849C29.0739 65.2849 30.6669 65.9486 31.8414 67.13L51.1057 86.8636L91.8043 46.7727C92.3858 46.1877 93.0763 45.7237 93.8361 45.4071C94.596 45.0905 95.4104 44.9276 96.2328 44.9276C97.0553 44.9276 97.8697 45.0905 98.6296 45.4071C99.3894 45.7237 100.08 46.1877 100.661 46.7727C101.243 47.3577 101.704 48.0522 102.019 48.8165C102.334 49.5808 102.496 50.4 102.496 51.2273C102.496 52.0546 102.334 52.8737 102.019 53.6381C101.704 54.4024 101.243 55.0968 100.661 55.6818L100.44 55.9045Z" fill="#1F4590"/>
</svg>
